<?xml version="1.0" encoding="UTF-8"?>
<svg width="300px" height="186px" xmlns="http://www.w3.org/2000/svg" viewBox="0 0 819.04 508.38">
  <defs>
    <style>.cls-1{fill:#fff;}</style>
  </defs>
  <g id="Layer_1" data-name="Layer 1">
    <path class="cls-1" d="M737.91,255.68c-12.1-65.7-69.42-115.56-138.63-115.56-22.3,0-43.1,5.63-61.85,14.84C518.84,81.55,452.53,27.15,373.34,27.15A169.46,169.46,0,0,0,203.88,196.61a169.46,169.46,0,0,0,0,338.92H712.25A141.21,141.21,0,0,0,853.46,394.32C853.47,325.11,803.61,267.78,737.91,255.68Z" transform="translate(-34.42 -27.15)"></path>
    <path class="cls-1" d="M373.34,83.64a113,113,0,0,0-113,113" transform="translate(-34.42 -27.15)"></path>
  </g>
</svg>
