<?xml version="1.0" encoding="UTF-8"?>
<!-- Generator: Adobe Illustrator 25.0.0, SVG Export Plug-In . SVG Version: 6.00 Build 0)  -->
<svg width="300px" height="188px" xmlns="http://www.w3.org/2000/svg" xmlns:xlink="http://www.w3.org/1999/xlink" version="1.1" x="0px" y="0px" viewBox="0 0 892.9 560.7" style="enable-background:new 0 0 892.9 560.7;" xml:space="preserve">
<style type="text/css">
	.st0{fill:none;stroke:#000000;stroke-width:6;stroke-linecap:round;stroke-linejoin:round;stroke-miterlimit:10;}
	.st1{font-family:'VAGRundschriftD-Lig';}
	.st2{font-size:96.1532px;}
	.st3{letter-spacing:3;}
</style>
<g id="Layer_2">
</g>
<g id="Layer_1">
	<g>
		<g>
			<path class="st0" d="M737.9,255.7c-12.1-65.7-69.4-115.6-138.6-115.6c-22.3,0-43.1,5.6-61.8,14.8     C518.8,81.5,452.5,27.1,373.3,27.1c-93.6,0-169.5,75.9-169.5,169.5c-93.6,0-169.5,75.9-169.5,169.5s75.9,169.5,169.5,169.5h508.4     c78,0,141.2-63.2,141.2-141.2C853.5,325.1,803.6,267.8,737.9,255.7z"></path>
			<path class="st0" d="M373.3,83.6c-62.4,0-113,50.6-113,113"></path>
		</g>
		<text transform="matrix(1 0 0 1 178.886 308.749)" class="st1 st2 st3">SLEEP</text>
		<text transform="matrix(1 0 0 1 178.886 399.5517)" class="st1 st2 st3">DENTISTRY</text>
		<text transform="matrix(1 0 0 1 176.2102 490.8466)" class="st1 st2 st3">MELBOURNE</text>
	</g>
</g>
</svg>
